<svg width="24" height="24" viewBox="0 0 24 24" fill="none" xmlns="http://www.w3.org/2000/svg">
<g id="Iconsax/Linear/video">
<path id="Vector" d="M12.53 20.4201H6.21C3.05 20.4201 2 18.3201 2 16.2101V7.79008C2 4.63008 3.05 3.58008 6.21 3.58008H12.53C15.69 3.58008 16.74 4.63008 16.74 7.79008V16.2101C16.74 19.3701 15.68 20.4201 12.53 20.4201Z" stroke="#C4B1A4" stroke-width="1.5" stroke-linecap="round" stroke-linejoin="round"/>
<path id="Vector_2" d="M19.52 17.0999L16.74 15.1499V8.83989L19.52 6.88989C20.88 5.93989 22 6.51989 22 8.18989V15.8099C22 17.4799 20.88 18.0599 19.52 17.0999ZM11.5 10.9999C11.8978 10.9999 12.2794 10.8419 12.5607 10.5605C12.842 10.2792 13 9.89771 13 9.49989C13 9.10206 12.842 8.72053 12.5607 8.43923C12.2794 8.15792 11.8978 7.99989 11.5 7.99989C11.1022 7.99989 10.7206 8.15792 10.4393 8.43923C10.158 8.72053 10 9.10206 10 9.49989C10 9.89771 10.158 10.2792 10.4393 10.5605C10.7206 10.8419 11.1022 10.9999 11.5 10.9999Z" stroke="#C4B1A4" stroke-width="1.5" stroke-linecap="round" stroke-linejoin="round"/>
</g>
</svg>
