<?xml version="1.0" standalone="no"?>
<!DOCTYPE svg PUBLIC "-//W3C//DTD SVG 20010904//EN"
 "http://www.w3.org/TR/2001/REC-SVG-20010904/DTD/svg10.dtd">
<svg version="1.0" xmlns="http://www.w3.org/2000/svg"
 width="512.000000pt" height="512.000000pt" viewBox="0 0 512.000000 512.000000"
 preserveAspectRatio="xMidYMid meet">
<metadata>
Created by potrace 1.14, written by Peter Selinger 2001-2017
</metadata>
<g transform="translate(0.000000,512.000000) scale(0.100000,-0.100000)"
fill="#000000" stroke="none">
<path d="M2390 4954 c-14 -2 -63 -9 -110 -15 -380 -49 -782 -245 -1065 -518
-127 -123 -246 -271 -329 -408 -92 -153 -191 -396 -221 -543 -2 -8 -9 -37 -15
-65 -28 -123 -39 -254 -35 -430 4 -200 7 -223 40 -380 37 -173 82 -301 164
-464 127 -254 330 -499 556 -670 39 -30 71 -57 73 -62 3 -7 -38 -130 -58 -174
-26 -58 -117 -354 -131 -427 -24 -130 -6 -200 74 -278 154 -150 453 -266 867
-334 166 -27 588 -28 715 -1 11 3 36 7 55 10 349 51 683 185 818 327 61 64 83
116 84 195 0 63 -3 86 -18 168 -15 78 -79 285 -125 401 -43 109 -48 129 -35
136 22 12 173 138 222 184 314 299 533 741 582 1174 15 134 8 450 -13 550 -3
14 -8 41 -11 60 -25 141 -93 340 -168 490 -126 250 -276 438 -513 642 -40 34
-169 128 -176 128 -3 0 -25 13 -49 29 -163 110 -450 216 -698 257 -86 15 -414
27 -480 18z"/>
</g>
</svg>
